# xmcd
#
# Track frame offsets:
#	150
#	18259
#	36120
#	50177
#	63774
#	81183
#	97212
#	112656
#	128963
#	140826
#	157695
#	174007
#	189788
#	203832
#	222798
#	246029
#	260435
#	276892
#	294025
#	311544
#	326105
#	334917
#	352448
#	353083
#	353718
#
# Disc length: 4725 seconds
#
# Revision: 1
# Processed by: cddbd v1.5.2PL0 Copyright (c) Steve Scherf et al.
# Submitted via: audiograbber 1.83.01
#
DISCID=73127319
DTITLE=Country Hotdisc - Country Hotdisc 110
DYEAR=2008
DGENRE=Country
TTITLE0=The Brightest Star  - Brenda Mulgrew
TTITLE1=Still Loving Me  - Richard Frankz
TTITLE2=Tell Your Story Walking  - Kate Sansing
TTITLE3=I Want More  - Change Of Key
TTITLE4=No Fishing Pole  - Mike Aiken
TTITLE5=Beatiful Lady  - Warren Smyth
TTITLE6=Mama Tell Me  - Brianie
TTITLE7=Let Me Be The First To Go  - Gene Watson and Vice Gill
TTITLE8=The Battle Hymn Of Love  - Clive John
TTITLE9=Heaven Blessed  - Jackie Storrar
TTITLE10=The Storm Inside Of Me  - Rio Grande
TTITLE11=Ready For The Time To Get Better  - Nicholas Mccarthy and The Yellowston
TTITLE11=e Picnic Band
TTITLE12=Little Miss Understood  - Cat Southern 
TTITLE13=My Woman, My Woman My Wife  - Stu Stevens
TTITLE14=High Noon (don´t Forsake Me)  - Bryan Chalker
TTITLE15=This Town - Gretchen Peters
TTITLE16=Happy Endings  - Lee Brice
TTITLE17=Ifs, And Ands  - Sprockett
TTITLE18=Until I Get It Down  - David Statzer
TTITLE19=Like Strangers  - Everlys Experience
TTITLE20=Walking Her Home  - Mark Schultz
TTITLE21=Cleaning This Gun (come In Boy)  - Rodney Atkins
TTITLE22=Radio Liners  - Jeff Griffith
TTITLE23=Radio Liners  - Jeff Griffith
TTITLE24=Radio Liners  - Jeff Griffith
EXTD=
EXTT0=
EXTT1=
EXTT2=
EXTT3=
EXTT4=
EXTT5=
EXTT6=
EXTT7=
EXTT8=
EXTT9=
EXTT10=
EXTT11=
EXTT12=
EXTT13=
EXTT14=
EXTT15=
EXTT16=
EXTT17=
EXTT18=
EXTT19=
EXTT20=
EXTT21=
EXTT22=
EXTT23=
EXTT24=
PLAYORDER=
